<svg xmlns="http://www.w3.org/2000/svg" xmlns:xlink="http://www.w3.org/1999/xlink" version="1.1" class="marks" width="620" height="1237" viewBox="0 0 620 1237"><rect width="620" height="1237" fill="#ffffff"/><g fill="none" stroke-miterlimit="10" transform="translate(189,56)"><g class="mark-group role-frame root" role="graphics-object" aria-roledescription="group mark container"><g transform="translate(0,0)"><path class="background" aria-hidden="true" d="M0.5,0.5h400v1140h-400Z" stroke="#ddd"/><g><g class="mark-group role-axis" role="graphics-symbol" aria-roledescription="axis" aria-label="X-axis for a linear scale with values from 0 to 2,000,000"><g transform="translate(0.5,1140.5)"><path class="background" aria-hidden="true" d="M0,0h0v0h0Z" pointer-events="none"/><g><g class="mark-rule role-axis-grid" pointer-events="none"><line transform="translate(0,0)" x2="0" y2="-1140" stroke="#ddd" stroke-width="1" opacity="1"/><line transform="translate(40,0)" x2="0" y2="-1140" stroke="#ddd" stroke-width="1" opacity="1"/><line transform="translate(80,0)" x2="0" y2="-1140" stroke="#ddd" stroke-width="1" opacity="1"/><line transform="translate(120,0)" x2="0" y2="-1140" stroke="#ddd" stroke-width="1" opacity="1"/><line transform="translate(160,0)" x2="0" y2="-1140" stroke="#ddd" stroke-width="1" opacity="1"/><line transform="translate(200,0)" x2="0" y2="-1140" stroke="#ddd" stroke-width="1" opacity="1"/><line transform="translate(240,0)" x2="0" y2="-1140" stroke="#ddd" stroke-width="1" opacity="1"/><line transform="translate(280,0)" x2="0" y2="-1140" stroke="#ddd" stroke-width="1" opacity="1"/><line transform="translate(320,0)" x2="0" y2="-1140" stroke="#ddd" stroke-width="1" opacity="1"/><line transform="translate(360,0)" x2="0" y2="-1140" stroke="#ddd" stroke-width="1" opacity="1"/><line transform="translate(400,0)" x2="0" y2="-1140" stroke="#ddd" stroke-width="1" opacity="1"/></g></g><path class="foreground" aria-hidden="true" d="" pointer-events="none" display="none"/></g></g><g class="mark-group role-axis" role="graphics-symbol" aria-roledescription="axis" aria-label="X-axis titled 'Importance' for a linear scale with values from 0 to 2,000,000"><g transform="translate(0.5,1140.5)"><path class="background" aria-hidden="true" d="M0,0h0v0h0Z" pointer-events="none"/><g><g class="mark-rule role-axis-tick" pointer-events="none"><line transform="translate(0,0)" x2="0" y2="3" stroke="#888" stroke-width="1" opacity="1"/><line transform="translate(40,0)" x2="0" y2="3" stroke="#888" stroke-width="1" opacity="1"/><line transform="translate(80,0)" x2="0" y2="3" stroke="#888" stroke-width="1" opacity="1"/><line transform="translate(120,0)" x2="0" y2="3" stroke="#888" stroke-width="1" opacity="1"/><line transform="translate(160,0)" x2="0" y2="3" stroke="#888" stroke-width="1" opacity="1"/><line transform="translate(200,0)" x2="0" y2="3" stroke="#888" stroke-width="1" opacity="1"/><line transform="translate(240,0)" x2="0" y2="3" stroke="#888" stroke-width="1" opacity="1"/><line transform="translate(280,0)" x2="0" y2="3" stroke="#888" stroke-width="1" opacity="1"/><line transform="translate(320,0)" x2="0" y2="3" stroke="#888" stroke-width="1" opacity="1"/><line transform="translate(360,0)" x2="0" y2="3" stroke="#888" stroke-width="1" opacity="1"/><line transform="translate(400,0)" x2="0" y2="3" stroke="#888" stroke-width="1" opacity="1"/></g><g class="mark-text role-axis-label" pointer-events="none"><text text-anchor="middle" transform="translate(0,16)" font-family="Benton Gothic, sans-serif" font-size="11.5px" font-weight="normal" fill="#000" opacity="1">0</text><text text-anchor="middle" transform="translate(40,16)" font-family="Benton Gothic, sans-serif" font-size="11.5px" font-weight="normal" fill="#000" opacity="0">200,000</text><text text-anchor="middle" transform="translate(80,16)" font-family="Benton Gothic, sans-serif" font-size="11.5px" font-weight="normal" fill="#000" opacity="1">400,000</text><text text-anchor="middle" transform="translate(120,16)" font-family="Benton Gothic, sans-serif" font-size="11.5px" font-weight="normal" fill="#000" opacity="0">600,000</text><text text-anchor="middle" transform="translate(160,16)" font-family="Benton Gothic, sans-serif" font-size="11.5px" font-weight="normal" fill="#000" opacity="1">800,000</text><text text-anchor="middle" transform="translate(200,16)" font-family="Benton Gothic, sans-serif" font-size="11.5px" font-weight="normal" fill="#000" opacity="0">1,000,000</text><text text-anchor="middle" transform="translate(240,16)" font-family="Benton Gothic, sans-serif" font-size="11.5px" font-weight="normal" fill="#000" opacity="1">1,200,000</text><text text-anchor="middle" transform="translate(280,16)" font-family="Benton Gothic, sans-serif" font-size="11.5px" font-weight="normal" fill="#000" opacity="0">1,400,000</text><text text-anchor="middle" transform="translate(320,16)" font-family="Benton Gothic, sans-serif" font-size="11.5px" font-weight="normal" fill="#000" opacity="1">1,600,000</text><text text-anchor="middle" transform="translate(360,16)" font-family="Benton Gothic, sans-serif" font-size="11.5px" font-weight="normal" fill="#000" opacity="0">1,800,000</text><text text-anchor="middle" transform="translate(400,16)" font-family="Benton Gothic, sans-serif" font-size="11.5px" font-weight="normal" fill="#000" opacity="1">2,000,000</text></g><g class="mark-rule role-axis-domain" pointer-events="none"><line transform="translate(0,0)" x2="400" y2="0" stroke="#888" stroke-width="1" opacity="1"/></g><g class="mark-text role-axis-title" pointer-events="none"><text text-anchor="middle" transform="translate(200,32.5)" font-family="Benton Gothic Bold, sans-serif" font-size="13px" font-weight="normal" fill="#000" opacity="1">Importance</text></g></g><path class="foreground" aria-hidden="true" d="" pointer-events="none" display="none"/></g></g><g class="mark-group role-axis" role="graphics-symbol" aria-roledescription="axis" aria-label="Y-axis titled 'Feature' for a discrete scale with 57 values: Headcount_Billable_Director, Pipeline_Recognized, Project_Count, Utilization_Billable_Individual, Headcount_Billable_Team, ending with Snp_Seq_No"><g transform="translate(0.5,0.5)"><path class="background" aria-hidden="true" d="M0,0h0v0h0Z" pointer-events="none"/><g><g class="mark-rule role-axis-tick" pointer-events="none"><line transform="translate(0,10)" x2="-2" y2="0" stroke="#888" stroke-width="1" opacity="1"/><line transform="translate(0,30)" x2="-2" y2="0" stroke="#888" stroke-width="1" opacity="1"/><line transform="translate(0,50)" x2="-2" y2="0" stroke="#888" stroke-width="1" opacity="1"/><line transform="translate(0,70)" x2="-2" y2="0" stroke="#888" stroke-width="1" opacity="1"/><line transform="translate(0,90)" x2="-2" y2="0" stroke="#888" stroke-width="1" opacity="1"/><line transform="translate(0,110)" x2="-2" y2="0" stroke="#888" stroke-width="1" opacity="1"/><line transform="translate(0,130)" x2="-2" y2="0" stroke="#888" stroke-width="1" opacity="1"/><line transform="translate(0,150)" x2="-2" y2="0" stroke="#888" stroke-width="1" opacity="1"/><line transform="translate(0,170)" x2="-2" y2="0" stroke="#888" stroke-width="1" opacity="1"/><line transform="translate(0,190)" x2="-2" y2="0" stroke="#888" stroke-width="1" opacity="1"/><line transform="translate(0,210)" x2="-2" y2="0" stroke="#888" stroke-width="1" opacity="1"/><line transform="translate(0,230)" x2="-2" y2="0" stroke="#888" stroke-width="1" opacity="1"/><line transform="translate(0,250)" x2="-2" y2="0" stroke="#888" stroke-width="1" opacity="1"/><line transform="translate(0,270)" x2="-2" y2="0" stroke="#888" stroke-width="1" opacity="1"/><line transform="translate(0,290)" x2="-2" y2="0" stroke="#888" stroke-width="1" opacity="1"/><line transform="translate(0,310)" x2="-2" y2="0" stroke="#888" stroke-width="1" opacity="1"/><line transform="translate(0,330)" x2="-2" y2="0" stroke="#888" stroke-width="1" opacity="1"/><line transform="translate(0,350)" x2="-2" y2="0" stroke="#888" stroke-width="1" opacity="1"/><line transform="translate(0,370)" x2="-2" y2="0" stroke="#888" stroke-width="1" opacity="1"/><line transform="translate(0,390)" x2="-2" y2="0" stroke="#888" stroke-width="1" opacity="1"/><line transform="translate(0,410)" x2="-2" y2="0" stroke="#888" stroke-width="1" opacity="1"/><line transform="translate(0,430)" x2="-2" y2="0" stroke="#888" stroke-width="1" opacity="1"/><line transform="translate(0,450)" x2="-2" y2="0" stroke="#888" stroke-width="1" opacity="1"/><line transform="translate(0,470)" x2="-2" y2="0" stroke="#888" stroke-width="1" opacity="1"/><line transform="translate(0,490)" x2="-2" y2="0" stroke="#888" stroke-width="1" opacity="1"/><line transform="translate(0,510)" x2="-2" y2="0" stroke="#888" stroke-width="1" opacity="1"/><line transform="translate(0,530)" x2="-2" y2="0" stroke="#888" stroke-width="1" opacity="1"/><line transform="translate(0,550)" x2="-2" y2="0" stroke="#888" stroke-width="1" opacity="1"/><line transform="translate(0,570)" x2="-2" y2="0" stroke="#888" stroke-width="1" opacity="1"/><line transform="translate(0,590)" x2="-2" y2="0" stroke="#888" stroke-width="1" opacity="1"/><line transform="translate(0,610)" x2="-2" y2="0" stroke="#888" stroke-width="1" opacity="1"/><line transform="translate(0,630)" x2="-2" y2="0" stroke="#888" stroke-width="1" opacity="1"/><line transform="translate(0,650)" x2="-2" y2="0" stroke="#888" stroke-width="1" opacity="1"/><line transform="translate(0,670)" x2="-2" y2="0" stroke="#888" stroke-width="1" opacity="1"/><line transform="translate(0,690)" x2="-2" y2="0" stroke="#888" stroke-width="1" opacity="1"/><line transform="translate(0,710)" x2="-2" y2="0" stroke="#888" stroke-width="1" opacity="1"/><line transform="translate(0,730)" x2="-2" y2="0" stroke="#888" stroke-width="1" opacity="1"/><line transform="translate(0,750)" x2="-2" y2="0" stroke="#888" stroke-width="1" opacity="1"/><line transform="translate(0,770)" x2="-2" y2="0" stroke="#888" stroke-width="1" opacity="1"/><line transform="translate(0,790)" x2="-2" y2="0" stroke="#888" stroke-width="1" opacity="1"/><line transform="translate(0,810)" x2="-2" y2="0" stroke="#888" stroke-width="1" opacity="1"/><line transform="translate(0,830)" x2="-2" y2="0" stroke="#888" stroke-width="1" opacity="1"/><line transform="translate(0,850)" x2="-2" y2="0" stroke="#888" stroke-width="1" opacity="1"/><line transform="translate(0,870)" x2="-2" y2="0" stroke="#888" stroke-width="1" opacity="1"/><line transform="translate(0,890)" x2="-2" y2="0" stroke="#888" stroke-width="1" opacity="1"/><line transform="translate(0,910)" x2="-2" y2="0" stroke="#888" stroke-width="1" opacity="1"/><line transform="translate(0,930)" x2="-2" y2="0" stroke="#888" stroke-width="1" opacity="1"/><line transform="translate(0,950)" x2="-2" y2="0" stroke="#888" stroke-width="1" opacity="1"/><line transform="translate(0,970)" x2="-2" y2="0" stroke="#888" stroke-width="1" opacity="1"/><line transform="translate(0,990)" x2="-2" y2="0" stroke="#888" stroke-width="1" opacity="1"/><line transform="translate(0,1010)" x2="-2" y2="0" stroke="#888" stroke-width="1" opacity="1"/><line transform="translate(0,1030)" x2="-2" y2="0" stroke="#888" stroke-width="1" opacity="1"/><line transform="translate(0,1050)" x2="-2" y2="0" stroke="#888" stroke-width="1" opacity="1"/><line transform="translate(0,1070)" x2="-2" y2="0" stroke="#888" stroke-width="1" opacity="1"/><line transform="translate(0,1090)" x2="-2" y2="0" stroke="#888" stroke-width="1" opacity="1"/><line transform="translate(0,1110)" x2="-2" y2="0" stroke="#888" stroke-width="1" opacity="1"/><line transform="translate(0,1130)" x2="-2" y2="0" stroke="#888" stroke-width="1" opacity="1"/></g><g class="mark-text role-axis-label" pointer-events="none"><text text-anchor="end" transform="translate(-4,12.5)" font-family="Benton Gothic, sans-serif" font-size="11.5px" font-weight="normal" fill="#000" opacity="1">Headcount_Billable_Director</text><text text-anchor="end" transform="translate(-4,32.5)" font-family="Benton Gothic, sans-serif" font-size="11.5px" font-weight="normal" fill="#000" opacity="1">Pipeline_Recognized</text><text text-anchor="end" transform="translate(-4,52.5)" font-family="Benton Gothic, sans-serif" font-size="11.5px" font-weight="normal" fill="#000" opacity="1">Project_Count</text><text text-anchor="end" transform="translate(-4,72.5)" font-family="Benton Gothic, sans-serif" font-size="11.5px" font-weight="normal" fill="#000" opacity="1">Utilization_Billable_Individual</text><text text-anchor="end" transform="translate(-4,92.5)" font-family="Benton Gothic, sans-serif" font-size="11.5px" font-weight="normal" fill="#000" opacity="1">Headcount_Billable_Team</text><text text-anchor="end" transform="translate(-4,112.5)" font-family="Benton Gothic, sans-serif" font-size="11.5px" font-weight="normal" fill="#000" opacity="1">Utilization_Billable_Team</text><text text-anchor="end" transform="translate(-4,132.5)" font-family="Benton Gothic, sans-serif" font-size="11.5px" font-weight="normal" fill="#000" opacity="1">Headcount_Billable_Individual</text><text text-anchor="end" transform="translate(-4,152.5)" font-family="Benton Gothic, sans-serif" font-size="11.5px" font-weight="normal" fill="#000" opacity="1">Pipeline_at_100_Percent_Recog…</text><text text-anchor="end" transform="translate(-4,172.5)" font-family="Benton Gothic, sans-serif" font-size="11.5px" font-weight="normal" fill="#000" opacity="1">Project_Price</text><text text-anchor="end" transform="translate(-4,192.5)" font-family="Benton Gothic, sans-serif" font-size="11.5px" font-weight="normal" fill="#000" opacity="1">Nominal_Hours_Individual</text><text text-anchor="end" transform="translate(-4,212.5)" font-family="Benton Gothic, sans-serif" font-size="11.5px" font-weight="normal" fill="#000" opacity="1">Utilization_Billable_Enterprise</text><text text-anchor="end" transform="translate(-4,232.5)" font-family="Benton Gothic, sans-serif" font-size="11.5px" font-weight="normal" fill="#000" opacity="1">EURONEXT_100</text><text text-anchor="end" transform="translate(-4,252.5)" font-family="Benton Gothic, sans-serif" font-size="11.5px" font-weight="normal" fill="#000" opacity="1">Opportunity_Count</text><text text-anchor="end" transform="translate(-4,272.5)" font-family="Benton Gothic, sans-serif" font-size="11.5px" font-weight="normal" fill="#000" opacity="1">Nominal_Hours_Director</text><text text-anchor="end" transform="translate(-4,292.5)" font-family="Benton Gothic, sans-serif" font-size="11.5px" font-weight="normal" fill="#000" opacity="1">Opportunity_Value</text><text text-anchor="end" transform="translate(-4,312.5)" font-family="Benton Gothic, sans-serif" font-size="11.5px" font-weight="normal" fill="#000" opacity="1">Project_Period_Count</text><text text-anchor="end" transform="translate(-4,332.5)" font-family="Benton Gothic, sans-serif" font-size="11.5px" font-weight="normal" fill="#000" opacity="1">End_of_Month</text><text text-anchor="end" transform="translate(-4,352.5)" font-family="Benton Gothic, sans-serif" font-size="11.5px" font-weight="normal" fill="#000" opacity="1">Current_Opp._Period_Value</text><text text-anchor="end" transform="translate(-4,372.5)" font-family="Benton Gothic, sans-serif" font-size="11.5px" font-weight="normal" fill="#000" opacity="1">FTSE_100</text><text text-anchor="end" transform="translate(-4,392.5)" font-family="Benton Gothic, sans-serif" font-size="11.5px" font-weight="normal" fill="#000" opacity="1">Pipeline_Active_Unrecognized</text><text text-anchor="end" transform="translate(-4,412.5)" font-family="Benton Gothic, sans-serif" font-size="11.5px" font-weight="normal" fill="#000" opacity="1">Headcount_Contingent_Billable</text><text text-anchor="end" transform="translate(-4,432.5)" font-family="Benton Gothic, sans-serif" font-size="11.5px" font-weight="normal" fill="#000" opacity="1">Nikkei_225</text><text text-anchor="end" transform="translate(-4,452.5)" font-family="Benton Gothic, sans-serif" font-size="11.5px" font-weight="normal" fill="#000" opacity="1">Headcount_Non-Billable_Director</text><text text-anchor="end" transform="translate(-4,472.5)" font-family="Benton Gothic, sans-serif" font-size="11.5px" font-weight="normal" fill="#000" opacity="1">SSE_Composite_Index</text><text text-anchor="end" transform="translate(-4,492.5)" font-family="Benton Gothic, sans-serif" font-size="11.5px" font-weight="normal" fill="#000" opacity="1">Relative_Offset</text><text text-anchor="end" transform="translate(-4,512.5)" font-family="Benton Gothic, sans-serif" font-size="11.5px" font-weight="normal" fill="#000" opacity="1">Utilization_Billable_Director</text><text text-anchor="end" transform="translate(-4,532.5)" font-family="Benton Gothic, sans-serif" font-size="11.5px" font-weight="normal" fill="#000" opacity="1">Conversions</text><text text-anchor="end" transform="translate(-4,552.5)" font-family="Benton Gothic, sans-serif" font-size="11.5px" font-weight="normal" fill="#000" opacity="1">Nominal_Hours_Enterprise</text><text text-anchor="end" transform="translate(-4,572.5)" font-family="Benton Gothic, sans-serif" font-size="11.5px" font-weight="normal" fill="#000" opacity="1">Project_Period_Price</text><text text-anchor="end" transform="translate(-4,592.5)" font-family="Benton Gothic, sans-serif" font-size="11.5px" font-weight="normal" fill="#000" opacity="1">Headcount_Non-Billable_Team</text><text text-anchor="end" transform="translate(-4,612.5)" font-family="Benton Gothic, sans-serif" font-size="11.5px" font-weight="normal" fill="#000" opacity="1">Headcount_Billable_Enterprise</text><text text-anchor="end" transform="translate(-4,632.5)" font-family="Benton Gothic, sans-serif" font-size="11.5px" font-weight="normal" fill="#000" opacity="1">Nominal_Hours_Team</text><text text-anchor="end" transform="translate(-4,652.5)" font-family="Benton Gothic, sans-serif" font-size="11.5px" font-weight="normal" fill="#000" opacity="1">Yield_Recognized</text><text text-anchor="end" transform="translate(-4,672.5)" font-family="Benton Gothic, sans-serif" font-size="11.5px" font-weight="normal" fill="#000" opacity="1">Nominal_Hours_Unknown</text><text text-anchor="end" transform="translate(-4,692.5)" font-family="Benton Gothic, sans-serif" font-size="11.5px" font-weight="normal" fill="#000" opacity="1">Headcount_Non-Billable_Individual</text><text text-anchor="end" transform="translate(-4,712.5)" font-family="Benton Gothic, sans-serif" font-size="11.5px" font-weight="normal" fill="#000" opacity="1">Opportunity_Period_Count</text><text text-anchor="end" transform="translate(-4,732.5)" font-family="Benton Gothic, sans-serif" font-size="11.5px" font-weight="normal" fill="#000" opacity="1">Pipeline_at_100_Percent_Oppor…</text><text text-anchor="end" transform="translate(-4,752.5)" font-family="Benton Gothic, sans-serif" font-size="11.5px" font-weight="normal" fill="#000" opacity="1">SP_500</text><text text-anchor="end" transform="translate(-4,772.5)" font-family="Benton Gothic, sans-serif" font-size="11.5px" font-weight="normal" fill="#000" opacity="1">Win_Rate</text><text text-anchor="end" transform="translate(-4,792.5)" font-family="Benton Gothic, sans-serif" font-size="11.5px" font-weight="normal" fill="#000" opacity="1">Yield_Active_Unrecognized</text><text text-anchor="end" transform="translate(-4,812.5)" font-family="Benton Gothic, sans-serif" font-size="11.5px" font-weight="normal" fill="#000" opacity="1">Pipeline_Opportunity</text><text text-anchor="end" transform="translate(-4,832.5)" font-family="Benton Gothic, sans-serif" font-size="11.5px" font-weight="normal" fill="#000" opacity="1">Pipeline_at_100_Percent_Oppor…</text><text text-anchor="end" transform="translate(-4,852.5)" font-family="Benton Gothic, sans-serif" font-size="11.5px" font-weight="normal" fill="#000" opacity="1">Headcount_Contingent_Non-Bill…</text><text text-anchor="end" transform="translate(-4,872.5)" font-family="Benton Gothic, sans-serif" font-size="11.5px" font-weight="normal" fill="#000" opacity="1">Pipeline_Opportunity_ML</text><text text-anchor="end" transform="translate(-4,892.5)" font-family="Benton Gothic, sans-serif" font-size="11.5px" font-weight="normal" fill="#000" opacity="1">Headcount_Contingent_Unknown</text><text text-anchor="end" transform="translate(-4,912.5)" font-family="Benton Gothic, sans-serif" font-size="11.5px" font-weight="normal" fill="#000" opacity="1">Relative_Month_Offset</text><text text-anchor="end" transform="translate(-4,932.5)" font-family="Benton Gothic, sans-serif" font-size="11.5px" font-weight="normal" fill="#000" opacity="1">Headcount_Non-Billable_Enterpr…</text><text text-anchor="end" transform="translate(-4,952.5)" font-family="Benton Gothic, sans-serif" font-size="11.5px" font-weight="normal" fill="#000" opacity="1">Relative_Snapshot_Month_Offset</text><text text-anchor="end" transform="translate(-4,972.5)" font-family="Benton Gothic, sans-serif" font-size="11.5px" font-weight="normal" fill="#000" opacity="1">Sub_Region_Code</text><text text-anchor="end" transform="translate(-4,992.5)" font-family="Benton Gothic, sans-serif" font-size="11.5px" font-weight="normal" fill="#000" opacity="1">Pipeline_Trend</text><text text-anchor="end" transform="translate(-4,1012.5)" font-family="Benton Gothic, sans-serif" font-size="11.5px" font-weight="normal" fill="#000" opacity="1">Yield_Opportunity_ML</text><text text-anchor="end" transform="translate(-4,1032.5)" font-family="Benton Gothic, sans-serif" font-size="11.5px" font-weight="normal" fill="#000" opacity="1">Nominal_Hours_Temp</text><text text-anchor="end" transform="translate(-4,1052.5)" font-family="Benton Gothic, sans-serif" font-size="11.5px" font-weight="normal" fill="#000" opacity="1">Snapshot_Date</text><text text-anchor="end" transform="translate(-4,1072.5)" font-family="Benton Gothic, sans-serif" font-size="11.5px" font-weight="normal" fill="#000" opacity="1">Snapshot_Day_of_Month</text><text text-anchor="end" transform="translate(-4,1092.5)" font-family="Benton Gothic, sans-serif" font-size="11.5px" font-weight="normal" fill="#000" opacity="1">Pipeline_at_100_Percent_Active…</text><text text-anchor="end" transform="translate(-4,1112.5)" font-family="Benton Gothic, sans-serif" font-size="11.5px" font-weight="normal" fill="#000" opacity="1">Yield_Opportunity</text><text text-anchor="end" transform="translate(-4,1132.5)" font-family="Benton Gothic, sans-serif" font-size="11.5px" font-weight="normal" fill="#000" opacity="1">Snp_Seq_No</text></g><g class="mark-rule role-axis-domain" pointer-events="none"><line transform="translate(0,0)" x2="0" y2="1140" stroke="#888" stroke-width="1" opacity="1"/></g><g class="mark-text role-axis-title" pointer-events="none"><text text-anchor="start" transform="translate(-45,-14)" font-family="Benton Gothic Bold, sans-serif" font-size="13px" font-weight="normal" fill="#000" opacity="1">Feature</text></g></g><path class="foreground" aria-hidden="true" d="" pointer-events="none" display="none"/></g></g><g class="mark-rect role-mark layer_0_marks" role="graphics-symbol" aria-roledescription="rect mark container"><path d="M0,1h369.1738906481217v18h-369.1738906481217Z" fill="#4c78a8"/><path d="M0,21h31.054909861223457v18h-31.054909861223457Z" fill="#4c78a8"/><path d="M0,41h25.406639365391136v18h-25.406639365391136Z" fill="#4c78a8"/><path d="M0,61h11.59621873051681v18h-11.59621873051681Z" fill="#4c78a8"/><path d="M0,81h5.56007136864771v18h-5.56007136864771Z" fill="#4c78a8"/><path d="M0,101h4.291844826810609v18h-4.291844826810609Z" fill="#4c78a8"/><path d="M0,121h2.7667198049378907v18h-2.7667198049378907Z" fill="#4c78a8"/><path d="M0,141h2.629118192483788v18h-2.629118192483788Z" fill="#4c78a8"/><path d="M0,161h2.6238931235891028v18h-2.6238931235891028Z" fill="#4c78a8"/><path d="M0,181h2.4621702182749083v18h-2.4621702182749083Z" fill="#4c78a8"/><path d="M0,201h2.4209520529671242v18h-2.4209520529671242Z" fill="#4c78a8"/><path d="M0,221h2.237970610216173v18h-2.237970610216173Z" fill="#4c78a8"/><path d="M0,241h2.1039606921722305v18h-2.1039606921722305Z" fill="#4c78a8"/><path d="M0,261h1.9553919041190388v18h-1.9553919041190388Z" fill="#4c78a8"/><path d="M0,281h1.7204738095078413v18h-1.7204738095078413Z" fill="#4c78a8"/><path d="M0,301h1.4776634680009284v18h-1.4776634680009284Z" fill="#4c78a8"/><path d="M0,321h1.4498915877845673v18h-1.4498915877845673Z" fill="#4c78a8"/><path d="M0,341h1.374896540133191v18h-1.374896540133191Z" fill="#4c78a8"/><path d="M0,361h1.0024630246262136v18h-1.0024630246262136Z" fill="#4c78a8"/><path d="M0,381h0.970157263582767v18h-0.970157263582767Z" fill="#4c78a8"/><path d="M0,401h0.9512813592684481v18h-0.9512813592684481Z" fill="#4c78a8"/><path d="M0,421h0.8081746572255607v18h-0.8081746572255607Z" fill="#4c78a8"/><path d="M0,441h0.7995272576393465v18h-0.7995272576393465Z" fill="#4c78a8"/><path d="M0,461h0.7201507696887338v18h-0.7201507696887338Z" fill="#4c78a8"/><path d="M0,481h0.7139673634392025v18h-0.7139673634392025Z" fill="#4c78a8"/><path d="M0,501h0.6836698288357673v18h-0.6836698288357673Z" fill="#4c78a8"/><path d="M0,521h0.49227508039176177v18h-0.49227508039176177Z" fill="#4c78a8"/><path d="M0,541h0.46653069955009135v18h-0.46653069955009135Z" fill="#4c78a8"/><path d="M0,561h0.4558735580141249v18h-0.4558735580141249Z" fill="#4c78a8"/><path d="M0,581h0.41447336883746344v18h-0.41447336883746344Z" fill="#4c78a8"/><path d="M0,601h0.3828400981469007v18h-0.3828400981469007Z" fill="#4c78a8"/><path d="M0,621h0.372378070200449v18h-0.372378070200449Z" fill="#4c78a8"/><path d="M0,641h0.35301681054655903v18h-0.35301681054655903Z" fill="#4c78a8"/><path d="M0,661h0.3274333517065818v18h-0.3274333517065818Z" fill="#4c78a8"/><path d="M0,681h0.31684919898862407v18h-0.31684919898862407Z" fill="#4c78a8"/><path d="M0,701h0.31179583193279203v18h-0.31179583193279203Z" fill="#4c78a8"/><path d="M0,721h0.28144864395597163v18h-0.28144864395597163Z" fill="#4c78a8"/><path d="M0,741h0.22623309458468274v18h-0.22623309458468274Z" fill="#4c78a8"/><path d="M0,761h0.2063183324005221v18h-0.2063183324005221Z" fill="#4c78a8"/><path d="M0,781h0.1748711421382653v18h-0.1748711421382653Z" fill="#4c78a8"/><path d="M0,801h0.1526543533199142v18h-0.1526543533199142Z" fill="#4c78a8"/><path d="M0,821h0.11553932089713857v18h-0.11553932089713857Z" fill="#4c78a8"/><path d="M0,841h0.09461823209030033v18h-0.09461823209030033Z" fill="#4c78a8"/><path d="M0,861h0.0853515013580012v18h-0.0853515013580012Z" fill="#4c78a8"/><path d="M0,881h0.07459053115436365v18h-0.07459053115436365Z" fill="#4c78a8"/><path d="M0,901h0.06535885028640928v18h-0.06535885028640928Z" fill="#4c78a8"/><path d="M0,921h0.06528696109587763v18h-0.06528696109587763Z" fill="#4c78a8"/><path d="M0,941h0.028029477698359166v18h-0.028029477698359166Z" fill="#4c78a8"/><path d="M0,961h0.024162854966107646v18h-0.024162854966107646Z" fill="#4c78a8"/><path d="M0,981h0.012930043622481874v18h-0.012930043622481874Z" fill="#4c78a8"/><path d="M0,1001h0.010483856077704436v18h-0.010483856077704436Z" fill="#4c78a8"/><path d="M0,1021h0.0048179293018772145v18h-0.0048179293018772145Z" fill="#4c78a8"/><path d="M0,1041h0.003921465278726473v18h-0.003921465278726473Z" fill="#4c78a8"/><path d="M0,1061h0.0015580734256972154v18h-0.0015580734256972154Z" fill="#4c78a8"/><path d="M0,1081h0v18h0Z" fill="#4c78a8"/><path d="M0,1101h0v18h0Z" fill="#4c78a8"/><path d="M0,1121h0v18h0Z" fill="#4c78a8"/></g><g class="mark-text role-mark layer_1_marks" role="graphics-object" aria-roledescription="text mark container"><text text-anchor="start" transform="translate(372.1738906481217,13)" font-family="sans-serif" font-size="11px" fill="black">1,845,869</text><text text-anchor="start" transform="translate(34.05490986122346,33)" font-family="sans-serif" font-size="11px" fill="black">155,275</text><text text-anchor="start" transform="translate(28.406639365391136,53)" font-family="sans-serif" font-size="11px" fill="black">127,033</text><text text-anchor="start" transform="translate(14.59621873051681,73)" font-family="sans-serif" font-size="11px" fill="black">57,981</text><text text-anchor="start" transform="translate(8.56007136864771,93)" font-family="sans-serif" font-size="11px" fill="black">27,800</text><text text-anchor="start" transform="translate(7.291844826810609,113)" font-family="sans-serif" font-size="11px" fill="black">21,459</text><text text-anchor="start" transform="translate(5.766719804937891,133)" font-family="sans-serif" font-size="11px" fill="black">13,834</text><text text-anchor="start" transform="translate(5.629118192483788,153)" font-family="sans-serif" font-size="11px" fill="black">13,146</text><text text-anchor="start" transform="translate(5.623893123589102,173)" font-family="sans-serif" font-size="11px" fill="black">13,119</text><text text-anchor="start" transform="translate(5.462170218274908,193)" font-family="sans-serif" font-size="11px" fill="black">12,311</text><text text-anchor="start" transform="translate(5.420952052967124,213)" font-family="sans-serif" font-size="11px" fill="black">12,105</text><text text-anchor="start" transform="translate(5.237970610216173,233)" font-family="sans-serif" font-size="11px" fill="black">11,190</text><text text-anchor="start" transform="translate(5.1039606921722305,253)" font-family="sans-serif" font-size="11px" fill="black">10,520</text><text text-anchor="start" transform="translate(4.955391904119039,273)" font-family="sans-serif" font-size="11px" fill="black">9,777</text><text text-anchor="start" transform="translate(4.720473809507841,293)" font-family="sans-serif" font-size="11px" fill="black">8,602</text><text text-anchor="start" transform="translate(4.477663468000928,313)" font-family="sans-serif" font-size="11px" fill="black">7,388</text><text text-anchor="start" transform="translate(4.449891587784567,333)" font-family="sans-serif" font-size="11px" fill="black">7,249</text><text text-anchor="start" transform="translate(4.374896540133191,353)" font-family="sans-serif" font-size="11px" fill="black">6,874</text><text text-anchor="start" transform="translate(4.002463024626214,373)" font-family="sans-serif" font-size="11px" fill="black">5,012</text><text text-anchor="start" transform="translate(3.970157263582767,393)" font-family="sans-serif" font-size="11px" fill="black">4,851</text><text text-anchor="start" transform="translate(3.951281359268448,413)" font-family="sans-serif" font-size="11px" fill="black">4,756</text><text text-anchor="start" transform="translate(3.808174657225561,433)" font-family="sans-serif" font-size="11px" fill="black">4,041</text><text text-anchor="start" transform="translate(3.7995272576393466,453)" font-family="sans-serif" font-size="11px" fill="black">3,998</text><text text-anchor="start" transform="translate(3.720150769688734,473)" font-family="sans-serif" font-size="11px" fill="black">3,601</text><text text-anchor="start" transform="translate(3.7139673634392025,493)" font-family="sans-serif" font-size="11px" fill="black">3,570</text><text text-anchor="start" transform="translate(3.683669828835767,513)" font-family="sans-serif" font-size="11px" fill="black">3,418</text><text text-anchor="start" transform="translate(3.492275080391762,533)" font-family="sans-serif" font-size="11px" fill="black">2,461</text><text text-anchor="start" transform="translate(3.4665306995500913,553)" font-family="sans-serif" font-size="11px" fill="black">2,333</text><text text-anchor="start" transform="translate(3.455873558014125,573)" font-family="sans-serif" font-size="11px" fill="black">2,279</text><text text-anchor="start" transform="translate(3.4144733688374633,593)" font-family="sans-serif" font-size="11px" fill="black">2,072</text><text text-anchor="start" transform="translate(3.3828400981469007,613)" font-family="sans-serif" font-size="11px" fill="black">1,914</text><text text-anchor="start" transform="translate(3.372378070200449,633)" font-family="sans-serif" font-size="11px" fill="black">1,862</text><text text-anchor="start" transform="translate(3.353016810546559,653)" font-family="sans-serif" font-size="11px" fill="black">1,765</text><text text-anchor="start" transform="translate(3.3274333517065817,673)" font-family="sans-serif" font-size="11px" fill="black">1,637</text><text text-anchor="start" transform="translate(3.316849198988624,693)" font-family="sans-serif" font-size="11px" fill="black">1,584</text><text text-anchor="start" transform="translate(3.311795831932792,713)" font-family="sans-serif" font-size="11px" fill="black">1,559</text><text text-anchor="start" transform="translate(3.281448643955972,733)" font-family="sans-serif" font-size="11px" fill="black">1,407</text><text text-anchor="start" transform="translate(3.226233094584683,753)" font-family="sans-serif" font-size="11px" fill="black">1,131</text><text text-anchor="start" transform="translate(3.206318332400522,773)" font-family="sans-serif" font-size="11px" fill="black">1,032</text><text text-anchor="start" transform="translate(3.174871142138265,793)" font-family="sans-serif" font-size="11px" fill="black">874</text><text text-anchor="start" transform="translate(3.1526543533199143,813)" font-family="sans-serif" font-size="11px" fill="black">763</text><text text-anchor="start" transform="translate(3.1155393208971387,833)" font-family="sans-serif" font-size="11px" fill="black">578</text><text text-anchor="start" transform="translate(3.0946182320903004,853)" font-family="sans-serif" font-size="11px" fill="black">473</text><text text-anchor="start" transform="translate(3.085351501358001,873)" font-family="sans-serif" font-size="11px" fill="black">427</text><text text-anchor="start" transform="translate(3.0745905311543638,893)" font-family="sans-serif" font-size="11px" fill="black">373</text><text text-anchor="start" transform="translate(3.065358850286409,913)" font-family="sans-serif" font-size="11px" fill="black">327</text><text text-anchor="start" transform="translate(3.0652869610958775,933)" font-family="sans-serif" font-size="11px" fill="black">326</text><text text-anchor="start" transform="translate(3.028029477698359,953)" font-family="sans-serif" font-size="11px" fill="black">140</text><text text-anchor="start" transform="translate(3.0241628549661077,973)" font-family="sans-serif" font-size="11px" fill="black">121</text><text text-anchor="start" transform="translate(3.012930043622482,993)" font-family="sans-serif" font-size="11px" fill="black">65</text><text text-anchor="start" transform="translate(3.0104838560777045,1013)" font-family="sans-serif" font-size="11px" fill="black">52</text><text text-anchor="start" transform="translate(3.0048179293018773,1033)" font-family="sans-serif" font-size="11px" fill="black">24</text><text text-anchor="start" transform="translate(3.0039214652787263,1053)" font-family="sans-serif" font-size="11px" fill="black">20</text><text text-anchor="start" transform="translate(3.0015580734256972,1073)" font-family="sans-serif" font-size="11px" fill="black">8</text><text text-anchor="start" transform="translate(3,1093)" font-family="sans-serif" font-size="11px" fill="black">0</text><text text-anchor="start" transform="translate(3,1113)" font-family="sans-serif" font-size="11px" fill="black">0</text><text text-anchor="start" transform="translate(3,1133)" font-family="sans-serif" font-size="11px" fill="black">0</text></g><g class="mark-group role-title"><g transform="translate(-183.65380859375,-50)"><path class="background" aria-hidden="true" d="M0,0h0v0h0Z" pointer-events="none"/><g><g class="mark-text role-title-text" role="graphics-symbol" aria-roledescription="title" aria-label="Title text 'Forecast Model Drivers'" pointer-events="none"><text text-anchor="start" transform="translate(0,17)" font-family="Benton Gothic Bold, sans-serif" font-size="22px" font-weight="normal" fill="#000000" opacity="1">Forecast Model Drivers</text></g></g><path class="foreground" aria-hidden="true" d="" pointer-events="none" display="none"/></g></g></g><path class="foreground" aria-hidden="true" d="" display="none"/></g></g></g></svg>