<svg xmlns="http://www.w3.org/2000/svg" xmlns:xlink="http://www.w3.org/1999/xlink" version="1.1" class="marks" width="621" height="1177" viewBox="0 0 621 1177"><rect width="621" height="1177" fill="#ffffff"/><g fill="none" stroke-miterlimit="10" transform="translate(189,56)"><g class="mark-group role-frame root" role="graphics-object" aria-roledescription="group mark container"><g transform="translate(0,0)"><path class="background" aria-hidden="true" d="M0.5,0.5h400v1080h-400Z" stroke="#ddd"/><g><g class="mark-group role-axis" role="graphics-symbol" aria-roledescription="axis" aria-label="X-axis for a linear scale with values from 0 to 2,000,000"><g transform="translate(0.5,1080.5)"><path class="background" aria-hidden="true" d="M0,0h0v0h0Z" pointer-events="none"/><g><g class="mark-rule role-axis-grid" pointer-events="none"><line transform="translate(0,0)" x2="0" y2="-1080" stroke="#ddd" stroke-width="1" opacity="1"/><line transform="translate(40,0)" x2="0" y2="-1080" stroke="#ddd" stroke-width="1" opacity="1"/><line transform="translate(80,0)" x2="0" y2="-1080" stroke="#ddd" stroke-width="1" opacity="1"/><line transform="translate(120,0)" x2="0" y2="-1080" stroke="#ddd" stroke-width="1" opacity="1"/><line transform="translate(160,0)" x2="0" y2="-1080" stroke="#ddd" stroke-width="1" opacity="1"/><line transform="translate(200,0)" x2="0" y2="-1080" stroke="#ddd" stroke-width="1" opacity="1"/><line transform="translate(240,0)" x2="0" y2="-1080" stroke="#ddd" stroke-width="1" opacity="1"/><line transform="translate(280,0)" x2="0" y2="-1080" stroke="#ddd" stroke-width="1" opacity="1"/><line transform="translate(320,0)" x2="0" y2="-1080" stroke="#ddd" stroke-width="1" opacity="1"/><line transform="translate(360,0)" x2="0" y2="-1080" stroke="#ddd" stroke-width="1" opacity="1"/><line transform="translate(400,0)" x2="0" y2="-1080" stroke="#ddd" stroke-width="1" opacity="1"/></g></g><path class="foreground" aria-hidden="true" d="" pointer-events="none" display="none"/></g></g><g class="mark-group role-axis" role="graphics-symbol" aria-roledescription="axis" aria-label="X-axis titled 'Importance' for a linear scale with values from 0 to 2,000,000"><g transform="translate(0.5,1080.5)"><path class="background" aria-hidden="true" d="M0,0h0v0h0Z" pointer-events="none"/><g><g class="mark-rule role-axis-tick" pointer-events="none"><line transform="translate(0,0)" x2="0" y2="3" stroke="#888" stroke-width="1" opacity="1"/><line transform="translate(40,0)" x2="0" y2="3" stroke="#888" stroke-width="1" opacity="1"/><line transform="translate(80,0)" x2="0" y2="3" stroke="#888" stroke-width="1" opacity="1"/><line transform="translate(120,0)" x2="0" y2="3" stroke="#888" stroke-width="1" opacity="1"/><line transform="translate(160,0)" x2="0" y2="3" stroke="#888" stroke-width="1" opacity="1"/><line transform="translate(200,0)" x2="0" y2="3" stroke="#888" stroke-width="1" opacity="1"/><line transform="translate(240,0)" x2="0" y2="3" stroke="#888" stroke-width="1" opacity="1"/><line transform="translate(280,0)" x2="0" y2="3" stroke="#888" stroke-width="1" opacity="1"/><line transform="translate(320,0)" x2="0" y2="3" stroke="#888" stroke-width="1" opacity="1"/><line transform="translate(360,0)" x2="0" y2="3" stroke="#888" stroke-width="1" opacity="1"/><line transform="translate(400,0)" x2="0" y2="3" stroke="#888" stroke-width="1" opacity="1"/></g><g class="mark-text role-axis-label" pointer-events="none"><text text-anchor="middle" transform="translate(0,16)" font-family="Benton Gothic, sans-serif" font-size="11.5px" font-weight="normal" fill="#000" opacity="1">0</text><text text-anchor="middle" transform="translate(40,16)" font-family="Benton Gothic, sans-serif" font-size="11.5px" font-weight="normal" fill="#000" opacity="0">200,000</text><text text-anchor="middle" transform="translate(80,16)" font-family="Benton Gothic, sans-serif" font-size="11.5px" font-weight="normal" fill="#000" opacity="1">400,000</text><text text-anchor="middle" transform="translate(120,16)" font-family="Benton Gothic, sans-serif" font-size="11.5px" font-weight="normal" fill="#000" opacity="0">600,000</text><text text-anchor="middle" transform="translate(160,16)" font-family="Benton Gothic, sans-serif" font-size="11.5px" font-weight="normal" fill="#000" opacity="1">800,000</text><text text-anchor="middle" transform="translate(200,16)" font-family="Benton Gothic, sans-serif" font-size="11.5px" font-weight="normal" fill="#000" opacity="0">1,000,000</text><text text-anchor="middle" transform="translate(240,16)" font-family="Benton Gothic, sans-serif" font-size="11.5px" font-weight="normal" fill="#000" opacity="1">1,200,000</text><text text-anchor="middle" transform="translate(280,16)" font-family="Benton Gothic, sans-serif" font-size="11.5px" font-weight="normal" fill="#000" opacity="0">1,400,000</text><text text-anchor="middle" transform="translate(320,16)" font-family="Benton Gothic, sans-serif" font-size="11.5px" font-weight="normal" fill="#000" opacity="1">1,600,000</text><text text-anchor="middle" transform="translate(360,16)" font-family="Benton Gothic, sans-serif" font-size="11.5px" font-weight="normal" fill="#000" opacity="0">1,800,000</text><text text-anchor="middle" transform="translate(400,16)" font-family="Benton Gothic, sans-serif" font-size="11.5px" font-weight="normal" fill="#000" opacity="1">2,000,000</text></g><g class="mark-rule role-axis-domain" pointer-events="none"><line transform="translate(0,0)" x2="400" y2="0" stroke="#888" stroke-width="1" opacity="1"/></g><g class="mark-text role-axis-title" pointer-events="none"><text text-anchor="middle" transform="translate(200,32.5)" font-family="Benton Gothic Bold, sans-serif" font-size="13px" font-weight="normal" fill="#000" opacity="1">Importance</text></g></g><path class="foreground" aria-hidden="true" d="" pointer-events="none" display="none"/></g></g><g class="mark-group role-axis" role="graphics-symbol" aria-roledescription="axis" aria-label="Y-axis titled 'Feature' for a discrete scale with 54 values: Headcount_Billable_Director, Pipeline_Recognized, Project_Count, Utilization_Billable_Individual, Headcount_Billable_Team, ending with Sub_Region_Code"><g transform="translate(0.5,0.5)"><path class="background" aria-hidden="true" d="M0,0h0v0h0Z" pointer-events="none"/><g><g class="mark-rule role-axis-tick" pointer-events="none"><line transform="translate(0,10)" x2="-2" y2="0" stroke="#888" stroke-width="1" opacity="1"/><line transform="translate(0,30)" x2="-2" y2="0" stroke="#888" stroke-width="1" opacity="1"/><line transform="translate(0,50)" x2="-2" y2="0" stroke="#888" stroke-width="1" opacity="1"/><line transform="translate(0,70)" x2="-2" y2="0" stroke="#888" stroke-width="1" opacity="1"/><line transform="translate(0,90)" x2="-2" y2="0" stroke="#888" stroke-width="1" opacity="1"/><line transform="translate(0,110)" x2="-2" y2="0" stroke="#888" stroke-width="1" opacity="1"/><line transform="translate(0,130)" x2="-2" y2="0" stroke="#888" stroke-width="1" opacity="1"/><line transform="translate(0,150)" x2="-2" y2="0" stroke="#888" stroke-width="1" opacity="1"/><line transform="translate(0,170)" x2="-2" y2="0" stroke="#888" stroke-width="1" opacity="1"/><line transform="translate(0,190)" x2="-2" y2="0" stroke="#888" stroke-width="1" opacity="1"/><line transform="translate(0,210)" x2="-2" y2="0" stroke="#888" stroke-width="1" opacity="1"/><line transform="translate(0,230)" x2="-2" y2="0" stroke="#888" stroke-width="1" opacity="1"/><line transform="translate(0,250)" x2="-2" y2="0" stroke="#888" stroke-width="1" opacity="1"/><line transform="translate(0,270)" x2="-2" y2="0" stroke="#888" stroke-width="1" opacity="1"/><line transform="translate(0,290)" x2="-2" y2="0" stroke="#888" stroke-width="1" opacity="1"/><line transform="translate(0,310)" x2="-2" y2="0" stroke="#888" stroke-width="1" opacity="1"/><line transform="translate(0,330)" x2="-2" y2="0" stroke="#888" stroke-width="1" opacity="1"/><line transform="translate(0,350)" x2="-2" y2="0" stroke="#888" stroke-width="1" opacity="1"/><line transform="translate(0,370)" x2="-2" y2="0" stroke="#888" stroke-width="1" opacity="1"/><line transform="translate(0,390)" x2="-2" y2="0" stroke="#888" stroke-width="1" opacity="1"/><line transform="translate(0,410)" x2="-2" y2="0" stroke="#888" stroke-width="1" opacity="1"/><line transform="translate(0,430)" x2="-2" y2="0" stroke="#888" stroke-width="1" opacity="1"/><line transform="translate(0,450)" x2="-2" y2="0" stroke="#888" stroke-width="1" opacity="1"/><line transform="translate(0,470)" x2="-2" y2="0" stroke="#888" stroke-width="1" opacity="1"/><line transform="translate(0,490)" x2="-2" y2="0" stroke="#888" stroke-width="1" opacity="1"/><line transform="translate(0,510)" x2="-2" y2="0" stroke="#888" stroke-width="1" opacity="1"/><line transform="translate(0,530)" x2="-2" y2="0" stroke="#888" stroke-width="1" opacity="1"/><line transform="translate(0,550)" x2="-2" y2="0" stroke="#888" stroke-width="1" opacity="1"/><line transform="translate(0,570)" x2="-2" y2="0" stroke="#888" stroke-width="1" opacity="1"/><line transform="translate(0,590)" x2="-2" y2="0" stroke="#888" stroke-width="1" opacity="1"/><line transform="translate(0,610)" x2="-2" y2="0" stroke="#888" stroke-width="1" opacity="1"/><line transform="translate(0,630)" x2="-2" y2="0" stroke="#888" stroke-width="1" opacity="1"/><line transform="translate(0,650)" x2="-2" y2="0" stroke="#888" stroke-width="1" opacity="1"/><line transform="translate(0,670)" x2="-2" y2="0" stroke="#888" stroke-width="1" opacity="1"/><line transform="translate(0,690)" x2="-2" y2="0" stroke="#888" stroke-width="1" opacity="1"/><line transform="translate(0,710)" x2="-2" y2="0" stroke="#888" stroke-width="1" opacity="1"/><line transform="translate(0,730)" x2="-2" y2="0" stroke="#888" stroke-width="1" opacity="1"/><line transform="translate(0,750)" x2="-2" y2="0" stroke="#888" stroke-width="1" opacity="1"/><line transform="translate(0,770)" x2="-2" y2="0" stroke="#888" stroke-width="1" opacity="1"/><line transform="translate(0,790)" x2="-2" y2="0" stroke="#888" stroke-width="1" opacity="1"/><line transform="translate(0,810)" x2="-2" y2="0" stroke="#888" stroke-width="1" opacity="1"/><line transform="translate(0,830)" x2="-2" y2="0" stroke="#888" stroke-width="1" opacity="1"/><line transform="translate(0,850)" x2="-2" y2="0" stroke="#888" stroke-width="1" opacity="1"/><line transform="translate(0,870)" x2="-2" y2="0" stroke="#888" stroke-width="1" opacity="1"/><line transform="translate(0,890)" x2="-2" y2="0" stroke="#888" stroke-width="1" opacity="1"/><line transform="translate(0,910)" x2="-2" y2="0" stroke="#888" stroke-width="1" opacity="1"/><line transform="translate(0,930)" x2="-2" y2="0" stroke="#888" stroke-width="1" opacity="1"/><line transform="translate(0,950)" x2="-2" y2="0" stroke="#888" stroke-width="1" opacity="1"/><line transform="translate(0,970)" x2="-2" y2="0" stroke="#888" stroke-width="1" opacity="1"/><line transform="translate(0,990)" x2="-2" y2="0" stroke="#888" stroke-width="1" opacity="1"/><line transform="translate(0,1010)" x2="-2" y2="0" stroke="#888" stroke-width="1" opacity="1"/><line transform="translate(0,1030)" x2="-2" y2="0" stroke="#888" stroke-width="1" opacity="1"/><line transform="translate(0,1050)" x2="-2" y2="0" stroke="#888" stroke-width="1" opacity="1"/><line transform="translate(0,1070)" x2="-2" y2="0" stroke="#888" stroke-width="1" opacity="1"/></g><g class="mark-text role-axis-label" pointer-events="none"><text text-anchor="end" transform="translate(-4,12.5)" font-family="Benton Gothic, sans-serif" font-size="11.5px" font-weight="normal" fill="#000" opacity="1">Headcount_Billable_Director</text><text text-anchor="end" transform="translate(-4,32.5)" font-family="Benton Gothic, sans-serif" font-size="11.5px" font-weight="normal" fill="#000" opacity="1">Pipeline_Recognized</text><text text-anchor="end" transform="translate(-4,52.5)" font-family="Benton Gothic, sans-serif" font-size="11.5px" font-weight="normal" fill="#000" opacity="1">Project_Count</text><text text-anchor="end" transform="translate(-4,72.5)" font-family="Benton Gothic, sans-serif" font-size="11.5px" font-weight="normal" fill="#000" opacity="1">Utilization_Billable_Individual</text><text text-anchor="end" transform="translate(-4,92.5)" font-family="Benton Gothic, sans-serif" font-size="11.5px" font-weight="normal" fill="#000" opacity="1">Headcount_Billable_Team</text><text text-anchor="end" transform="translate(-4,112.5)" font-family="Benton Gothic, sans-serif" font-size="11.5px" font-weight="normal" fill="#000" opacity="1">Utilization_Billable_Team</text><text text-anchor="end" transform="translate(-4,132.5)" font-family="Benton Gothic, sans-serif" font-size="11.5px" font-weight="normal" fill="#000" opacity="1">Headcount_Billable_Individual</text><text text-anchor="end" transform="translate(-4,152.5)" font-family="Benton Gothic, sans-serif" font-size="11.5px" font-weight="normal" fill="#000" opacity="1">Nominal_Hours_Director</text><text text-anchor="end" transform="translate(-4,172.5)" font-family="Benton Gothic, sans-serif" font-size="11.5px" font-weight="normal" fill="#000" opacity="1">EURONEXT_100</text><text text-anchor="end" transform="translate(-4,192.5)" font-family="Benton Gothic, sans-serif" font-size="11.5px" font-weight="normal" fill="#000" opacity="1">Project_Price</text><text text-anchor="end" transform="translate(-4,212.5)" font-family="Benton Gothic, sans-serif" font-size="11.5px" font-weight="normal" fill="#000" opacity="1">Utilization_Billable_Enterprise</text><text text-anchor="end" transform="translate(-4,232.5)" font-family="Benton Gothic, sans-serif" font-size="11.5px" font-weight="normal" fill="#000" opacity="1">End_of_Month</text><text text-anchor="end" transform="translate(-4,252.5)" font-family="Benton Gothic, sans-serif" font-size="11.5px" font-weight="normal" fill="#000" opacity="1">FTSE_100</text><text text-anchor="end" transform="translate(-4,272.5)" font-family="Benton Gothic, sans-serif" font-size="11.5px" font-weight="normal" fill="#000" opacity="1">Nominal_Hours_Individual</text><text text-anchor="end" transform="translate(-4,292.5)" font-family="Benton Gothic, sans-serif" font-size="11.5px" font-weight="normal" fill="#000" opacity="1">Opportunity_Value</text><text text-anchor="end" transform="translate(-4,312.5)" font-family="Benton Gothic, sans-serif" font-size="11.5px" font-weight="normal" fill="#000" opacity="1">Current_Opp._Period_Value</text><text text-anchor="end" transform="translate(-4,332.5)" font-family="Benton Gothic, sans-serif" font-size="11.5px" font-weight="normal" fill="#000" opacity="1">Pipeline_Active_Unrecognized</text><text text-anchor="end" transform="translate(-4,352.5)" font-family="Benton Gothic, sans-serif" font-size="11.5px" font-weight="normal" fill="#000" opacity="1">Project_Period_Count</text><text text-anchor="end" transform="translate(-4,372.5)" font-family="Benton Gothic, sans-serif" font-size="11.5px" font-weight="normal" fill="#000" opacity="1">Headcount_Contingent_Billable</text><text text-anchor="end" transform="translate(-4,392.5)" font-family="Benton Gothic, sans-serif" font-size="11.5px" font-weight="normal" fill="#000" opacity="1">Conversions</text><text text-anchor="end" transform="translate(-4,412.5)" font-family="Benton Gothic, sans-serif" font-size="11.5px" font-weight="normal" fill="#000" opacity="1">SSE_Composite_Index</text><text text-anchor="end" transform="translate(-4,432.5)" font-family="Benton Gothic, sans-serif" font-size="11.5px" font-weight="normal" fill="#000" opacity="1">Headcount_Non-Billable_Director</text><text text-anchor="end" transform="translate(-4,452.5)" font-family="Benton Gothic, sans-serif" font-size="11.5px" font-weight="normal" fill="#000" opacity="1">Nominal_Hours_Enterprise</text><text text-anchor="end" transform="translate(-4,472.5)" font-family="Benton Gothic, sans-serif" font-size="11.5px" font-weight="normal" fill="#000" opacity="1">Opportunity_Count</text><text text-anchor="end" transform="translate(-4,492.5)" font-family="Benton Gothic, sans-serif" font-size="11.5px" font-weight="normal" fill="#000" opacity="1">Nikkei_225</text><text text-anchor="end" transform="translate(-4,512.5)" font-family="Benton Gothic, sans-serif" font-size="11.5px" font-weight="normal" fill="#000" opacity="1">Relative_Offset</text><text text-anchor="end" transform="translate(-4,532.5)" font-family="Benton Gothic, sans-serif" font-size="11.5px" font-weight="normal" fill="#000" opacity="1">Utilization_Billable_Director</text><text text-anchor="end" transform="translate(-4,552.5)" font-family="Benton Gothic, sans-serif" font-size="11.5px" font-weight="normal" fill="#000" opacity="1">Project_Period_Price</text><text text-anchor="end" transform="translate(-4,572.5)" font-family="Benton Gothic, sans-serif" font-size="11.5px" font-weight="normal" fill="#000" opacity="1">Pipeline_at_100_Percent_Oppor…</text><text text-anchor="end" transform="translate(-4,592.5)" font-family="Benton Gothic, sans-serif" font-size="11.5px" font-weight="normal" fill="#000" opacity="1">Pipeline_Opportunity_ML</text><text text-anchor="end" transform="translate(-4,612.5)" font-family="Benton Gothic, sans-serif" font-size="11.5px" font-weight="normal" fill="#000" opacity="1">Headcount_Contingent_Non-Bill…</text><text text-anchor="end" transform="translate(-4,632.5)" font-family="Benton Gothic, sans-serif" font-size="11.5px" font-weight="normal" fill="#000" opacity="1">Opportunity_Period_Count</text><text text-anchor="end" transform="translate(-4,652.5)" font-family="Benton Gothic, sans-serif" font-size="11.5px" font-weight="normal" fill="#000" opacity="1">Headcount_Non-Billable_Individual</text><text text-anchor="end" transform="translate(-4,672.5)" font-family="Benton Gothic, sans-serif" font-size="11.5px" font-weight="normal" fill="#000" opacity="1">Yield_Active_Unrecognized</text><text text-anchor="end" transform="translate(-4,692.5)" font-family="Benton Gothic, sans-serif" font-size="11.5px" font-weight="normal" fill="#000" opacity="1">Headcount_Non-Billable_Team</text><text text-anchor="end" transform="translate(-4,712.5)" font-family="Benton Gothic, sans-serif" font-size="11.5px" font-weight="normal" fill="#000" opacity="1">Nominal_Hours_Unknown</text><text text-anchor="end" transform="translate(-4,732.5)" font-family="Benton Gothic, sans-serif" font-size="11.5px" font-weight="normal" fill="#000" opacity="1">Yield_Recognized</text><text text-anchor="end" transform="translate(-4,752.5)" font-family="Benton Gothic, sans-serif" font-size="11.5px" font-weight="normal" fill="#000" opacity="1">Headcount_Billable_Enterprise</text><text text-anchor="end" transform="translate(-4,772.5)" font-family="Benton Gothic, sans-serif" font-size="11.5px" font-weight="normal" fill="#000" opacity="1">Win_Rate</text><text text-anchor="end" transform="translate(-4,792.5)" font-family="Benton Gothic, sans-serif" font-size="11.5px" font-weight="normal" fill="#000" opacity="1">SP_500</text><text text-anchor="end" transform="translate(-4,812.5)" font-family="Benton Gothic, sans-serif" font-size="11.5px" font-weight="normal" fill="#000" opacity="1">Pipeline_at_100_Percent_Oppor…</text><text text-anchor="end" transform="translate(-4,832.5)" font-family="Benton Gothic, sans-serif" font-size="11.5px" font-weight="normal" fill="#000" opacity="1">Nominal_Hours_Team</text><text text-anchor="end" transform="translate(-4,852.5)" font-family="Benton Gothic, sans-serif" font-size="11.5px" font-weight="normal" fill="#000" opacity="1">Yield_Opportunity_ML</text><text text-anchor="end" transform="translate(-4,872.5)" font-family="Benton Gothic, sans-serif" font-size="11.5px" font-weight="normal" fill="#000" opacity="1">Pipeline_Opportunity</text><text text-anchor="end" transform="translate(-4,892.5)" font-family="Benton Gothic, sans-serif" font-size="11.5px" font-weight="normal" fill="#000" opacity="1">Relative_Month_Offset</text><text text-anchor="end" transform="translate(-4,912.5)" font-family="Benton Gothic, sans-serif" font-size="11.5px" font-weight="normal" fill="#000" opacity="1">Relative_Snapshot_Month_Offset</text><text text-anchor="end" transform="translate(-4,932.5)" font-family="Benton Gothic, sans-serif" font-size="11.5px" font-weight="normal" fill="#000" opacity="1">Headcount_Contingent_Unknown</text><text text-anchor="end" transform="translate(-4,952.5)" font-family="Benton Gothic, sans-serif" font-size="11.5px" font-weight="normal" fill="#000" opacity="1">Snapshot_Date</text><text text-anchor="end" transform="translate(-4,972.5)" font-family="Benton Gothic, sans-serif" font-size="11.5px" font-weight="normal" fill="#000" opacity="1">Pipeline_Trend</text><text text-anchor="end" transform="translate(-4,992.5)" font-family="Benton Gothic, sans-serif" font-size="11.5px" font-weight="normal" fill="#000" opacity="1">Headcount_Non-Billable_Enterpr…</text><text text-anchor="end" transform="translate(-4,1012.5)" font-family="Benton Gothic, sans-serif" font-size="11.5px" font-weight="normal" fill="#000" opacity="1">Snapshot_Day_of_Month</text><text text-anchor="end" transform="translate(-4,1032.5)" font-family="Benton Gothic, sans-serif" font-size="11.5px" font-weight="normal" fill="#000" opacity="1">Pipeline_at_100_Percent_Active…</text><text text-anchor="end" transform="translate(-4,1052.5)" font-family="Benton Gothic, sans-serif" font-size="11.5px" font-weight="normal" fill="#000" opacity="1">Snp_Seq_No</text><text text-anchor="end" transform="translate(-4,1072.5)" font-family="Benton Gothic, sans-serif" font-size="11.5px" font-weight="normal" fill="#000" opacity="1">Sub_Region_Code</text></g><g class="mark-rule role-axis-domain" pointer-events="none"><line transform="translate(0,0)" x2="0" y2="1080" stroke="#888" stroke-width="1" opacity="1"/></g><g class="mark-text role-axis-title" pointer-events="none"><text text-anchor="start" transform="translate(-45,-14)" font-family="Benton Gothic Bold, sans-serif" font-size="13px" font-weight="normal" fill="#000" opacity="1">Feature</text></g></g><path class="foreground" aria-hidden="true" d="" pointer-events="none" display="none"/></g></g><g class="mark-rect role-mark layer_0_marks" role="graphics-symbol" aria-roledescription="rect mark container"><path d="M0,1h374.91678254126134v18h-374.91678254126134Z" fill="#4c78a8"/><path d="M0,21h35.54482612818146v18h-35.54482612818146Z" fill="#4c78a8"/><path d="M0,41h24.82498711190414v18h-24.82498711190414Z" fill="#4c78a8"/><path d="M0,61h11.405173890544015v18h-11.405173890544015Z" fill="#4c78a8"/><path d="M0,81h7.772420203813253v18h-7.772420203813253Z" fill="#4c78a8"/><path d="M0,101h4.719592656830531v18h-4.719592656830531Z" fill="#4c78a8"/><path d="M0,121h4.1433151183037955v18h-4.1433151183037955Z" fill="#4c78a8"/><path d="M0,141h3.007443672715906v18h-3.007443672715906Z" fill="#4c78a8"/><path d="M0,161h2.782687166199849v18h-2.782687166199849Z" fill="#4c78a8"/><path d="M0,181h2.5273132032031667v18h-2.5273132032031667Z" fill="#4c78a8"/><path d="M0,201h2.4194322832412203v18h-2.4194322832412203Z" fill="#4c78a8"/><path d="M0,221h2.0987278815534114v18h-2.0987278815534114Z" fill="#4c78a8"/><path d="M0,241h1.7430583933572257v18h-1.7430583933572257Z" fill="#4c78a8"/><path d="M0,261h1.5537652168749354v18h-1.5537652168749354Z" fill="#4c78a8"/><path d="M0,281h1.4196803193384246v18h-1.4196803193384246Z" fill="#4c78a8"/><path d="M0,301h1.400185810912084v18h-1.400185810912084Z" fill="#4c78a8"/><path d="M0,321h1.3533746168340028v18h-1.3533746168340028Z" fill="#4c78a8"/><path d="M0,341h1.3408688018178108v18h-1.3408688018178108Z" fill="#4c78a8"/><path d="M0,361h1.1993521313507023v18h-1.1993521313507023Z" fill="#4c78a8"/><path d="M0,381h1.0036094664768356v18h-1.0036094664768356Z" fill="#4c78a8"/><path d="M0,401h0.978881229987471v18h-0.978881229987471Z" fill="#4c78a8"/><path d="M0,421h0.9498846306924373v18h-0.9498846306924373Z" fill="#4c78a8"/><path d="M0,441h0.8063331429257713v18h-0.8063331429257713Z" fill="#4c78a8"/><path d="M0,461h0.7762427855893672v18h-0.7762427855893672Z" fill="#4c78a8"/><path d="M0,481h0.631343594948666v18h-0.631343594948666Z" fill="#4c78a8"/><path d="M0,501h0.6080808165919216v18h-0.6080808165919216Z" fill="#4c78a8"/><path d="M0,521h0.5856111767497436v18h-0.5856111767497436Z" fill="#4c78a8"/><path d="M0,541h0.523780775262559v18h-0.523780775262559Z" fill="#4c78a8"/><path d="M0,561h0.4978350973688576v18h-0.4978350973688576Z" fill="#4c78a8"/><path d="M0,581h0.4216769842211014v18h-0.4216769842211014Z" fill="#4c78a8"/><path d="M0,601h0.34712046220185105v18h-0.34712046220185105Z" fill="#4c78a8"/><path d="M0,621h0.34488812534034835v18h-0.34488812534034835Z" fill="#4c78a8"/><path d="M0,641h0.3312921590007109v18h-0.3312921590007109Z" fill="#4c78a8"/><path d="M0,661h0.28589743343348323v18h-0.28589743343348323Z" fill="#4c78a8"/><path d="M0,681h0.26205698416497003v18h-0.26205698416497003Z" fill="#4c78a8"/><path d="M0,701h0.25018991214053643v18h-0.25018991214053643Z" fill="#4c78a8"/><path d="M0,721h0.24999587444395766v18h-0.24999587444395766Z" fill="#4c78a8"/><path d="M0,741h0.22651191300253906v18h-0.22651191300253906Z" fill="#4c78a8"/><path d="M0,761h0.21871306285459738v18h-0.21871306285459738Z" fill="#4c78a8"/><path d="M0,781h0.16564291048432842v18h-0.16564291048432842Z" fill="#4c78a8"/><path d="M0,801h0.1545773895214539v18h-0.1545773895214539Z" fill="#4c78a8"/><path d="M0,821h0.14278314783816654v18h-0.14278314783816654Z" fill="#4c78a8"/><path d="M0,841h0.07107692777007465v18h-0.07107692777007465Z" fill="#4c78a8"/><path d="M0,861h0.04946000158707672v18h-0.04946000158707672Z" fill="#4c78a8"/><path d="M0,881h0.04062976842602375v18h-0.04062976842602375Z" fill="#4c78a8"/><path d="M0,901h0.029296502649154264v18h-0.029296502649154264Z" fill="#4c78a8"/><path d="M0,921h0.019995158210899134v18h-0.019995158210899134Z" fill="#4c78a8"/><path d="M0,941h0.01104255748402198v18h-0.01104255748402198Z" fill="#4c78a8"/><path d="M0,961h0.010041001739187478v18h-0.010041001739187478Z" fill="#4c78a8"/><path d="M0,981h0.008753219654535058v18h-0.008753219654535058Z" fill="#4c78a8"/><path d="M0,1001h0.004191144436752097v18h-0.004191144436752097Z" fill="#4c78a8"/><path d="M0,1021h0v18h0Z" fill="#4c78a8"/><path d="M0,1041h0v18h0Z" fill="#4c78a8"/><path d="M0,1061h0v18h0Z" fill="#4c78a8"/></g><g class="mark-text role-mark layer_1_marks" role="graphics-object" aria-roledescription="text mark container"><text text-anchor="start" transform="translate(377.91678254126134,13)" font-family="sans-serif" font-size="11px" fill="black">1,874,584</text><text text-anchor="start" transform="translate(38.54482612818146,33)" font-family="sans-serif" font-size="11px" fill="black">177,724</text><text text-anchor="start" transform="translate(27.82498711190414,53)" font-family="sans-serif" font-size="11px" fill="black">124,125</text><text text-anchor="start" transform="translate(14.405173890544015,73)" font-family="sans-serif" font-size="11px" fill="black">57,026</text><text text-anchor="start" transform="translate(10.772420203813253,93)" font-family="sans-serif" font-size="11px" fill="black">38,862</text><text text-anchor="start" transform="translate(7.719592656830531,113)" font-family="sans-serif" font-size="11px" fill="black">23,598</text><text text-anchor="start" transform="translate(7.1433151183037955,133)" font-family="sans-serif" font-size="11px" fill="black">20,717</text><text text-anchor="start" transform="translate(6.007443672715906,153)" font-family="sans-serif" font-size="11px" fill="black">15,037</text><text text-anchor="start" transform="translate(5.78268716619985,173)" font-family="sans-serif" font-size="11px" fill="black">13,913</text><text text-anchor="start" transform="translate(5.527313203203167,193)" font-family="sans-serif" font-size="11px" fill="black">12,637</text><text text-anchor="start" transform="translate(5.41943228324122,213)" font-family="sans-serif" font-size="11px" fill="black">12,097</text><text text-anchor="start" transform="translate(5.098727881553412,233)" font-family="sans-serif" font-size="11px" fill="black">10,494</text><text text-anchor="start" transform="translate(4.7430583933572255,253)" font-family="sans-serif" font-size="11px" fill="black">8,715</text><text text-anchor="start" transform="translate(4.553765216874935,273)" font-family="sans-serif" font-size="11px" fill="black">7,769</text><text text-anchor="start" transform="translate(4.419680319338425,293)" font-family="sans-serif" font-size="11px" fill="black">7,098</text><text text-anchor="start" transform="translate(4.400185810912084,313)" font-family="sans-serif" font-size="11px" fill="black">7,001</text><text text-anchor="start" transform="translate(4.353374616834003,333)" font-family="sans-serif" font-size="11px" fill="black">6,767</text><text text-anchor="start" transform="translate(4.340868801817811,353)" font-family="sans-serif" font-size="11px" fill="black">6,704</text><text text-anchor="start" transform="translate(4.199352131350702,373)" font-family="sans-serif" font-size="11px" fill="black">5,997</text><text text-anchor="start" transform="translate(4.003609466476836,393)" font-family="sans-serif" font-size="11px" fill="black">5,018</text><text text-anchor="start" transform="translate(3.978881229987471,413)" font-family="sans-serif" font-size="11px" fill="black">4,894</text><text text-anchor="start" transform="translate(3.9498846306924373,433)" font-family="sans-serif" font-size="11px" fill="black">4,749</text><text text-anchor="start" transform="translate(3.806333142925771,453)" font-family="sans-serif" font-size="11px" fill="black">4,032</text><text text-anchor="start" transform="translate(3.776242785589367,473)" font-family="sans-serif" font-size="11px" fill="black">3,881</text><text text-anchor="start" transform="translate(3.631343594948666,493)" font-family="sans-serif" font-size="11px" fill="black">3,157</text><text text-anchor="start" transform="translate(3.6080808165919214,513)" font-family="sans-serif" font-size="11px" fill="black">3,040</text><text text-anchor="start" transform="translate(3.585611176749744,533)" font-family="sans-serif" font-size="11px" fill="black">2,928</text><text text-anchor="start" transform="translate(3.523780775262559,553)" font-family="sans-serif" font-size="11px" fill="black">2,619</text><text text-anchor="start" transform="translate(3.4978350973688577,573)" font-family="sans-serif" font-size="11px" fill="black">2,489</text><text text-anchor="start" transform="translate(3.4216769842211012,593)" font-family="sans-serif" font-size="11px" fill="black">2,108</text><text text-anchor="start" transform="translate(3.347120462201851,613)" font-family="sans-serif" font-size="11px" fill="black">1,736</text><text text-anchor="start" transform="translate(3.3448881253403484,633)" font-family="sans-serif" font-size="11px" fill="black">1,724</text><text text-anchor="start" transform="translate(3.3312921590007107,653)" font-family="sans-serif" font-size="11px" fill="black">1,656</text><text text-anchor="start" transform="translate(3.285897433433483,673)" font-family="sans-serif" font-size="11px" fill="black">1,429</text><text text-anchor="start" transform="translate(3.2620569841649703,693)" font-family="sans-serif" font-size="11px" fill="black">1,310</text><text text-anchor="start" transform="translate(3.250189912140536,713)" font-family="sans-serif" font-size="11px" fill="black">1,251</text><text text-anchor="start" transform="translate(3.2499958744439574,733)" font-family="sans-serif" font-size="11px" fill="black">1,250</text><text text-anchor="start" transform="translate(3.2265119130025393,753)" font-family="sans-serif" font-size="11px" fill="black">1,133</text><text text-anchor="start" transform="translate(3.2187130628545972,773)" font-family="sans-serif" font-size="11px" fill="black">1,094</text><text text-anchor="start" transform="translate(3.1656429104843284,793)" font-family="sans-serif" font-size="11px" fill="black">828</text><text text-anchor="start" transform="translate(3.154577389521454,813)" font-family="sans-serif" font-size="11px" fill="black">773</text><text text-anchor="start" transform="translate(3.1427831478381667,833)" font-family="sans-serif" font-size="11px" fill="black">714</text><text text-anchor="start" transform="translate(3.0710769277700747,853)" font-family="sans-serif" font-size="11px" fill="black">355</text><text text-anchor="start" transform="translate(3.0494600015870765,873)" font-family="sans-serif" font-size="11px" fill="black">247</text><text text-anchor="start" transform="translate(3.0406297684260237,893)" font-family="sans-serif" font-size="11px" fill="black">203</text><text text-anchor="start" transform="translate(3.0292965026491543,913)" font-family="sans-serif" font-size="11px" fill="black">146</text><text text-anchor="start" transform="translate(3.0199951582108993,933)" font-family="sans-serif" font-size="11px" fill="black">100</text><text text-anchor="start" transform="translate(3.011042557484022,953)" font-family="sans-serif" font-size="11px" fill="black">55</text><text text-anchor="start" transform="translate(3.0100410017391876,973)" font-family="sans-serif" font-size="11px" fill="black">50</text><text text-anchor="start" transform="translate(3.008753219654535,993)" font-family="sans-serif" font-size="11px" fill="black">44</text><text text-anchor="start" transform="translate(3.004191144436752,1013)" font-family="sans-serif" font-size="11px" fill="black">21</text><text text-anchor="start" transform="translate(3,1033)" font-family="sans-serif" font-size="11px" fill="black">0</text><text text-anchor="start" transform="translate(3,1053)" font-family="sans-serif" font-size="11px" fill="black">0</text><text text-anchor="start" transform="translate(3,1073)" font-family="sans-serif" font-size="11px" fill="black">0</text></g><g class="mark-group role-title"><g transform="translate(-183.63134765625,-50)"><path class="background" aria-hidden="true" d="M0,0h0v0h0Z" pointer-events="none"/><g><g class="mark-text role-title-text" role="graphics-symbol" aria-roledescription="title" aria-label="Title text 'Forecast Model Drivers'" pointer-events="none"><text text-anchor="start" transform="translate(0,17)" font-family="Benton Gothic Bold, sans-serif" font-size="22px" font-weight="normal" fill="#000000" opacity="1">Forecast Model Drivers</text></g></g><path class="foreground" aria-hidden="true" d="" pointer-events="none" display="none"/></g></g></g><path class="foreground" aria-hidden="true" d="" display="none"/></g></g></g></svg>